<svg version="1.1" xmlns="http://www.w3.org/2000/svg" xmlns:xlink="http://www.w3.org/1999/xlink"><g><path d="M8.125 0.325 C 4.440 1.348,1.305 4.530,0.308 8.258 C -0.272 10.426,-0.132 532.104,0.449 533.986 C 3.791 544.804,19.624 544.134,21.923 533.077 C 22.103 532.208,22.172 461.736,22.172 277.025 L 22.172 22.172 39.593 22.172 L 57.014 22.172 57.018 276.867 C 57.021 497.224,57.065 531.768,57.346 533.093 C 58.205 537.146,61.398 540.438,65.507 541.509 C 67.517 542.032,126.148 542.032,128.158 541.509 C 132.267 540.438,135.460 537.146,136.319 533.093 C 136.600 531.768,136.644 497.222,136.648 276.849 L 136.652 22.136 164.084 22.237 C 194.527 22.350,197.855 22.482,211.312 24.107 C 313.042 36.389,379.735 106.506,377.754 199.095 C 375.720 294.133,303.476 360.984,195.366 367.869 C 193.377 367.996,191.315 368.100,190.784 368.100 L 189.819 368.100 189.819 351.584 C 189.819 342.500,189.895 335.067,189.989 335.067 C 190.082 335.066,191.584 334.963,193.326 334.837 C 285.975 328.132,346.278 261.517,336.174 177.036 C 327.586 105.237,264.156 55.385,181.448 55.433 C 173.456 55.437,169.758 57.674,168.012 63.559 C 167.555 65.097,167.447 124.353,167.896 126.516 C 169.005 131.846,173.554 135.281,179.525 135.294 C 216.842 135.375,244.485 155.994,248.530 186.765 C 253.638 225.625,223.662 255.350,179.290 255.426 C 168.918 255.444,163.743 267.137,170.927 274.321 C 174.047 277.441,176.940 278.009,186.464 277.369 C 236.873 273.984,271.168 240.722,271.136 195.249 C 271.104 151.559,240.971 119.883,193.835 113.990 L 189.819 113.488 189.819 95.680 L 189.819 77.871 190.667 77.959 C 191.134 78.007,192.941 78.157,194.683 78.291 C 268.082 83.955,317.905 134.485,314.929 200.243 C 311.939 266.323,259.342 311.186,182.696 313.032 C 173.368 313.256,169.902 315.146,168.096 320.992 C 167.517 322.866,167.385 380.110,167.955 382.240 C 168.952 385.967,172.098 389.198,175.673 390.165 C 180.617 391.504,207.953 389.674,224.887 386.871 C 340.220 367.780,411.699 278.649,398.518 170.362 C 387.099 76.551,312.039 10.654,205.769 1.145 C 194.481 0.135,193.472 0.113,157.353 0.113 L 122.738 0.113 121.513 0.633 C 117.563 2.312,115.087 5.500,114.481 9.690 C 114.341 10.652,114.261 103.294,114.258 265.441 L 114.253 519.683 96.719 519.683 L 79.186 519.683 79.186 264.408 C 79.186 32.048,79.153 9.022,78.827 7.903 C 77.880 4.660,75.482 2.048,72.152 0.633 L 70.928 0.113 40.045 0.075 C 15.620 0.044,8.946 0.097,8.125 0.325 " stroke="#fff" stroke-width="5" fill="#ffffff" fill-rule="evenodd"></path></g></svg>